<svg width="19" height="15" viewBox="0 0 19 15" fill="none" xmlns="http://www.w3.org/2000/svg">
<path d="M4.24111 0.570027C5.30778 0.569536 6.16131 0.995808 6.80171 1.84885C7.48475 2.6592 7.82666 3.89638 7.82744 5.56037C7.82901 8.93104 6.74233 11.7689 4.5674 14.0739C4.14094 14.5007 3.6717 14.7143 3.1597 14.7145C2.69037 14.7147 2.28497 14.5656 1.94349 14.2671C1.602 13.9259 1.43116 13.542 1.43096 13.1153C1.43074 12.646 1.60122 12.2406 1.94239 11.8991C3.05121 10.7892 3.75455 9.38092 4.05242 7.67412C3.11372 7.58922 2.32421 7.22691 1.68392 6.58721C1.08628 5.94748 0.78724 5.13695 0.786783 4.15562C0.786286 3.08895 1.10589 2.23547 1.74559 1.59518C2.42794 0.912197 3.25978 0.57048 4.24111 0.570027ZM14.8651 0.565129C15.9318 0.564637 16.7853 0.99091 17.4257 1.84395C18.1088 2.6543 18.4507 3.89148 18.4514 5.55548C18.453 8.92614 17.3663 11.764 15.1914 14.069C14.7649 14.4958 14.2957 14.7094 13.7837 14.7096C13.3144 14.7098 12.909 14.5607 12.5675 14.2622C12.226 13.921 12.0552 13.5371 12.055 13.1104C12.0547 12.6411 12.2252 12.2357 12.5664 11.8942C13.6752 10.7843 14.3786 9.37602 14.6764 7.66922C13.7377 7.58432 12.9482 7.22201 12.3079 6.58231C11.7103 5.94258 11.4112 5.13205 11.4108 4.15072C11.4103 3.08406 11.7299 2.23058 12.3696 1.59028C13.0519 0.907299 13.8838 0.565581 14.8651 0.565129Z" fill="white"/>
</svg>
