<svg width="19" height="15" viewBox="0 0 19 15" fill="none" xmlns="http://www.w3.org/2000/svg">
<path d="M4.62839 7.60985C5.5671 7.69475 6.33527 8.05706 6.9329 8.69679C7.53053 9.33651 7.82958 10.147 7.83003 11.1284C7.83053 12.195 7.51094 13.0699 6.87126 13.7528C6.23155 14.3931 5.42104 14.7135 4.4397 14.7139C3.33037 14.7144 2.43418 14.3095 1.75114 13.4992C1.11076 12.6888 0.790172 11.4303 0.789377 9.72362C0.787846 6.43829 1.87452 3.60045 4.04941 1.21012C4.47588 0.783252 4.96645 0.569693 5.52111 0.569437C5.99045 0.569221 6.39586 0.739701 6.73735 1.08088C7.07882 1.37939 7.24966 1.74197 7.24986 2.16864C7.25008 2.63797 7.0796 3.04339 6.73842 3.38488C5.62963 4.53739 4.92628 5.94571 4.62839 7.60985ZM15.2524 7.60495C16.1911 7.68985 16.9593 8.05216 17.5569 8.69189C18.1545 9.33161 18.4536 10.1421 18.454 11.1235C18.4545 12.1901 18.1349 13.065 17.4953 13.7479C16.8556 14.3882 16.045 14.7086 15.0637 14.709C13.9544 14.7096 13.0582 14.3046 12.3751 13.4943C11.7348 12.6839 11.4142 11.4254 11.4134 9.71872C11.4118 6.43339 12.4985 3.59555 14.6734 1.20522C15.0999 0.778354 15.5904 0.564794 16.1451 0.564539C16.6144 0.564322 17.0199 0.734802 17.3614 1.07598C17.7028 1.37449 17.8737 1.73707 17.8739 2.16374C17.8741 2.63307 17.7036 3.03849 17.3624 3.37998C16.2536 4.53249 15.5503 5.94081 15.2524 7.60495Z" fill="white"/>
</svg>
