<svg width="24" height="18" viewBox="0 0 24 18" fill="none" xmlns="http://www.w3.org/2000/svg">
<path d="M21.75 0C22.3594 0 22.875 0.234375 23.3438 0.65625C23.7656 1.125 24 1.64062 24 2.25V15.75C24 16.4062 23.7656 16.9219 23.3438 17.3438C22.875 17.8125 22.3594 18 21.75 18H2.25C1.59375 18 1.07812 17.8125 0.65625 17.3438C0.1875 16.9219 0 16.4062 0 15.75V2.25C0 1.64062 0.1875 1.125 0.65625 0.65625C1.07812 0.234375 1.59375 0 2.25 0H21.75ZM21.75 2.25H2.25V4.17188C3.32812 5.0625 5.4375 6.70312 8.57812 9.14062L9 9.51562C9.60938 10.0781 10.125 10.4531 10.5 10.6406C11.0625 11.0625 11.5781 11.25 12 11.25C12.375 11.25 12.8906 11.0625 13.5 10.6406C13.875 10.4531 14.3438 10.0781 15 9.51562L15.4219 9.14062C18.5156 6.75 20.625 5.10938 21.75 4.17188V2.25ZM2.25 15.75H21.75V7.03125L16.3125 11.3438C15.5156 12 14.8594 12.4688 14.3906 12.75C13.5469 13.2656 12.75 13.5 12 13.5C11.25 13.5 10.4062 13.2656 9.5625 12.75C9.09375 12.4688 8.4375 12 7.64062 11.3438L2.25 7.03125V15.75Z" fill="#D3D3D3"/>
</svg>
